<?xml version="1.0" encoding="UTF-8"?>
<!DOCTYPE svg PUBLIC "-//W3C//DTD SVG 1.1//EN" "http://www.w3.org/Graphics/SVG/1.1/DTD/svg11.dtd">
<svg xmlns="http://www.w3.org/2000/svg" version="1.1" width="800px" height="663px" style="shape-rendering:geometricPrecision; text-rendering:geometricPrecision; image-rendering:optimizeQuality; fill-rule:evenodd; clip-rule:evenodd" xmlns:xlink="http://www.w3.org/1999/xlink">
<g><path style="opacity:1" fill="#03011c" d="M -0.5,-0.5 C 266.167,-0.5 532.833,-0.5 799.5,-0.5C 799.5,220.5 799.5,441.5 799.5,662.5C 532.833,662.5 266.167,662.5 -0.5,662.5C -0.5,441.5 -0.5,220.5 -0.5,-0.5 Z"/></g>
<g><path style="opacity:1" fill="#f14d1e" d="M 399.5,193.5 C 399.5,223.833 399.5,254.167 399.5,284.5C 382.167,284.5 364.833,284.5 347.5,284.5C 322.727,279.487 309.394,264.32 307.5,239C 309.036,217.272 320.036,202.605 340.5,195C 360.112,193.549 379.779,193.049 399.5,193.5 Z"/></g>
<g><path style="opacity:1" fill="#fc7161" d="M 399.5,193.5 C 419.221,193.049 438.888,193.549 458.5,195C 485.172,205.844 495.339,225.344 489,253.5C 484.712,266.122 476.545,275.288 464.5,281C 459.872,282.49 455.206,283.657 450.5,284.5C 445.786,284.353 441.119,284.686 436.5,285.5C 424.167,285.5 411.833,285.5 399.5,285.5C 382.167,285.5 364.833,285.5 347.5,285.5C 347.5,285.167 347.5,284.833 347.5,284.5C 364.833,284.5 382.167,284.5 399.5,284.5C 399.5,254.167 399.5,223.833 399.5,193.5 Z"/></g>
<g><path style="opacity:1" fill="#a158fe" d="M 347.5,285.5 C 364.833,285.5 382.167,285.5 399.5,285.5C 399.5,297.833 399.5,310.167 399.5,322.5C 399.5,326.833 399.5,331.167 399.5,335.5C 399.5,349.167 399.5,362.833 399.5,376.5C 381.5,376.5 363.5,376.5 345.5,376.5C 314.68,366.199 303.18,345.199 311,313.5C 318.163,297.516 330.33,288.183 347.5,285.5 Z"/></g>
<g><path style="opacity:1" fill="#05061f" d="M 399.5,285.5 C 411.833,285.5 424.167,285.5 436.5,285.5C 417.167,290.833 404.833,303.167 399.5,322.5C 399.5,310.167 399.5,297.833 399.5,285.5 Z"/></g>
<g><path style="opacity:1" fill="#1abafc" d="M 450.5,284.5 C 478.101,290.65 491.601,307.984 491,336.5C 484.927,363.586 468.093,376.753 440.5,376C 416.977,372.31 403.311,358.81 399.5,335.5C 399.5,331.167 399.5,326.833 399.5,322.5C 404.833,303.167 417.167,290.833 436.5,285.5C 441.119,284.686 445.786,284.353 450.5,284.5 Z"/></g>
<g><path style="opacity:1" fill="#0acd82" d="M 345.5,376.5 C 363.5,376.5 381.5,376.5 399.5,376.5C 399.667,394.503 399.5,412.503 399,430.5C 392.802,453.861 377.636,466.528 353.5,468.5C 325.833,465.5 310.5,450.167 307.5,422.5C 309.665,398.347 322.332,383.014 345.5,376.5 Z"/></g>
</svg>
